# xmcd
#
# Track frame offsets:
#	183
#	18645
#	35570
#	59335
#	75063
#	90720
#	115060
#	130620
#	144618
#	164140
#	178320
#	196130
#
# Disc length: 2944 seconds
#
# Revision: 0
# Processed by: cddbd v1.5.2PL0 Copyright (c) Steve Scherf et al.
# Submitted via: audiograbber 1.83.01
#
DISCID=9f0b7e0c
DTITLE=Kennedy Rose - Walk The Line
DYEAR=1994
DGENRE=Country
TTITLE0=She Walks The Line
TTITLE1=Real World
TTITLE2=Iron Horse
TTITLE3=Without Your Love
TTITLE4=Island Home
TTITLE5=White Horse
TTITLE6=Walls
TTITLE7=Safe In The Arms
TTITLE8=Love Makes No Promises
TTITLE9=The Sins Of Our Fathers
TTITLE10=Surrender
TTITLE11=Friends
EXTD=
EXTT0=
EXTT1=
EXTT2=
EXTT3=
EXTT4=
EXTT5=
EXTT6=
EXTT7=
EXTT8=
EXTT9=
EXTT10=
EXTT11=
PLAYORDER=
